G04 #@! TF.GenerationSoftware,KiCad,Pcbnew,(5.1.9-0-10_14)*
G04 #@! TF.CreationDate,2021-07-10T16:18:32+02:00*
G04 #@! TF.ProjectId,3pdt-switch,33706474-2d73-4776-9974-63682e6b6963,rev?*
G04 #@! TF.SameCoordinates,Original*
G04 #@! TF.FileFunction,Legend,Bot*
G04 #@! TF.FilePolarity,Positive*
%FSLAX46Y46*%
G04 Gerber Fmt 4.6, Leading zero omitted, Abs format (unit mm)*
G04 Created by KiCad (PCBNEW (5.1.9-0-10_14)) date 2021-07-10 16:18:32*
%MOMM*%
%LPD*%
G01*
G04 APERTURE LIST*
%ADD10C,0.127000*%
%ADD11C,0.152400*%
%ADD12C,0.065024*%
G04 APERTURE END LIST*
D10*
X114935000Y-96405700D02*
G75*
G03*
X114935000Y-96405700I-635000J0D01*
G01*
X113665000Y-96405700D02*
X114935000Y-96405700D01*
X114300000Y-95770700D02*
X114300000Y-97040700D01*
D11*
X121920000Y-104025700D02*
X121920000Y-88785700D01*
X106680000Y-104025700D02*
X121920000Y-104025700D01*
X106680000Y-88785700D02*
X106680000Y-104025700D01*
X121920000Y-88785700D02*
X106680000Y-88785700D01*
X121793000Y-84201000D02*
X119253000Y-84201000D01*
X119253000Y-84201000D02*
X119253000Y-86741000D01*
X119253000Y-86741000D02*
X121793000Y-86741000D01*
X121793000Y-86741000D02*
X121793000Y-84201000D01*
X121793000Y-86741000D02*
X121793000Y-88011000D01*
X121793000Y-88011000D02*
X119253000Y-88011000D01*
X119253000Y-88011000D02*
X119253000Y-86741000D01*
X119253000Y-84201000D02*
X116713000Y-84201000D01*
X116713000Y-84201000D02*
X116713000Y-86741000D01*
X116713000Y-86741000D02*
X119253000Y-86741000D01*
X119253000Y-86741000D02*
X119253000Y-84201000D01*
X119253000Y-86741000D02*
X119253000Y-88011000D01*
X119253000Y-88011000D02*
X116713000Y-88011000D01*
X116713000Y-88011000D02*
X116713000Y-86741000D01*
X114173000Y-84201000D02*
X111633000Y-84201000D01*
X111633000Y-84201000D02*
X111633000Y-86741000D01*
X111633000Y-86741000D02*
X114173000Y-86741000D01*
X114173000Y-86741000D02*
X114173000Y-84201000D01*
X114173000Y-86741000D02*
X114173000Y-88011000D01*
X114173000Y-88011000D02*
X111633000Y-88011000D01*
X111633000Y-88011000D02*
X111633000Y-86741000D01*
X116713000Y-84201000D02*
X114173000Y-84201000D01*
X114173000Y-84201000D02*
X114173000Y-86741000D01*
X114173000Y-86741000D02*
X116713000Y-86741000D01*
X116713000Y-86741000D02*
X116713000Y-84201000D01*
X116713000Y-86741000D02*
X116713000Y-88011000D01*
X116713000Y-88011000D02*
X114173000Y-88011000D01*
X114173000Y-88011000D02*
X114173000Y-86741000D01*
X109093000Y-84201000D02*
X106553000Y-84201000D01*
X106553000Y-84201000D02*
X106553000Y-86741000D01*
X106553000Y-86741000D02*
X109093000Y-86741000D01*
X109093000Y-86741000D02*
X109093000Y-84201000D01*
X109093000Y-86741000D02*
X109093000Y-88011000D01*
X109093000Y-88011000D02*
X106553000Y-88011000D01*
X106553000Y-88011000D02*
X106553000Y-86741000D01*
X111633000Y-84201000D02*
X109093000Y-84201000D01*
X109093000Y-84201000D02*
X109093000Y-86741000D01*
X109093000Y-86741000D02*
X111633000Y-86741000D01*
X111633000Y-86741000D02*
X111633000Y-84201000D01*
X111633000Y-86741000D02*
X111633000Y-88011000D01*
X111633000Y-88011000D02*
X109093000Y-88011000D01*
X109093000Y-88011000D02*
X109093000Y-86741000D01*
D10*
X94869000Y-96405700D02*
G75*
G03*
X94869000Y-96405700I-635000J0D01*
G01*
X94234000Y-95770700D02*
X94234000Y-97040700D01*
X93599000Y-96405700D02*
X94869000Y-96405700D01*
X91694000Y-97675700D02*
X92710000Y-97675700D01*
X92710000Y-97675700D02*
X94234000Y-97675700D01*
X94234000Y-97675700D02*
X95758000Y-97675700D01*
X95758000Y-97675700D02*
X96774000Y-97675700D01*
X96774000Y-97675700D02*
X96774000Y-95135700D01*
X94234000Y-95135700D02*
X91694000Y-95135700D01*
X91694000Y-95135700D02*
X91694000Y-97675700D01*
X94234000Y-97675700D02*
X94234000Y-95135700D01*
X94234000Y-95135700D02*
X96774000Y-95135700D01*
X91694000Y-97675700D02*
X91694000Y-98945700D01*
X91694000Y-98945700D02*
X92710000Y-98945700D01*
X92710000Y-98945700D02*
X95758000Y-98945700D01*
X95758000Y-98945700D02*
X96774000Y-98945700D01*
X96774000Y-98945700D02*
X96774000Y-98564700D01*
X96774000Y-98564700D02*
X96774000Y-97675700D01*
X92710000Y-97675700D02*
X92710000Y-98945700D01*
X95758000Y-97675700D02*
X95758000Y-98945700D01*
X92710000Y-97675700D02*
X92710000Y-98945700D01*
X135001000Y-96405700D02*
G75*
G03*
X135001000Y-96405700I-635000J0D01*
G01*
X134366000Y-95770700D02*
X134366000Y-97040700D01*
X133731000Y-96405700D02*
X135001000Y-96405700D01*
X131826000Y-97675700D02*
X132842000Y-97675700D01*
X132842000Y-97675700D02*
X134366000Y-97675700D01*
X134366000Y-97675700D02*
X135890000Y-97675700D01*
X135890000Y-97675700D02*
X136906000Y-97675700D01*
X136906000Y-97675700D02*
X136906000Y-95135700D01*
X134366000Y-95135700D02*
X131826000Y-95135700D01*
X131826000Y-95135700D02*
X131826000Y-97675700D01*
X134366000Y-97675700D02*
X134366000Y-95135700D01*
X134366000Y-95135700D02*
X136906000Y-95135700D01*
X131826000Y-97675700D02*
X131826000Y-98945700D01*
X131826000Y-98945700D02*
X132842000Y-98945700D01*
X132842000Y-98945700D02*
X135890000Y-98945700D01*
X135890000Y-98945700D02*
X136906000Y-98945700D01*
X136906000Y-98945700D02*
X136906000Y-98564700D01*
X136906000Y-98564700D02*
X136906000Y-97675700D01*
X132842000Y-97675700D02*
X132842000Y-98945700D01*
X135890000Y-97675700D02*
X135890000Y-98945700D01*
X132842000Y-97675700D02*
X132842000Y-98945700D01*
D12*
X93694968Y-98665090D02*
X93694968Y-97892930D01*
X93511120Y-97892930D01*
X93400812Y-97929700D01*
X93327273Y-98003239D01*
X93290503Y-98076778D01*
X93253734Y-98223856D01*
X93253734Y-98334164D01*
X93290503Y-98481242D01*
X93327273Y-98554781D01*
X93400812Y-98628320D01*
X93511120Y-98665090D01*
X93694968Y-98665090D01*
X92959577Y-97966469D02*
X92922808Y-97929700D01*
X92849269Y-97892930D01*
X92665421Y-97892930D01*
X92591882Y-97929700D01*
X92555113Y-97966469D01*
X92518343Y-98040008D01*
X92518343Y-98113547D01*
X92555113Y-98223856D01*
X92996347Y-98665090D01*
X92518343Y-98665090D01*
X133826968Y-98665090D02*
X133826968Y-97892930D01*
X133643120Y-97892930D01*
X133532812Y-97929700D01*
X133459273Y-98003239D01*
X133422503Y-98076778D01*
X133385734Y-98223856D01*
X133385734Y-98334164D01*
X133422503Y-98481242D01*
X133459273Y-98554781D01*
X133532812Y-98628320D01*
X133643120Y-98665090D01*
X133826968Y-98665090D01*
X132650343Y-98665090D02*
X133091577Y-98665090D01*
X132870960Y-98665090D02*
X132870960Y-97892930D01*
X132944499Y-98003239D01*
X133018038Y-98076778D01*
X133091577Y-98113547D01*
M02*
