M48
; DRILL file {KiCad (5.1.9-0-10_14)} date Saturday, July 10, 2021 at 04:18:34 PM
; FORMAT={-:-/ absolute / inch / decimal}
; #@! TF.CreationDate,2021-07-10T16:18:34+02:00
; #@! TF.GenerationSoftware,Kicad,Pcbnew,(5.1.9-0-10_14)
; #@! TF.FileFunction,Plated,1,2,PTH
FMAT,2
INCH
T1C0.0394
T2C0.0472
T3C0.0709
%
G90
G05
T1
X3.66Y-3.7955
X3.76Y-3.7955
X4.895Y-3.535
X4.9Y-3.795
X5.0Y-3.695
X5.1Y-3.795
X5.195Y-3.535
X5.24Y-3.7955
X5.34Y-3.7955
T2
X4.245Y-3.365
X4.345Y-3.365
X4.445Y-3.365
X4.545Y-3.365
X4.645Y-3.365
X4.745Y-3.365
T3
G00X4.3197Y-3.5955
M15
G01X4.2803Y-3.5955
M16
G05
G00X4.3197Y-3.7955
M15
G01X4.2803Y-3.7955
M16
G05
G00X4.3197Y-3.9955
M15
G01X4.2803Y-3.9955
M16
G05
G00X4.5197Y-3.5955
M15
G01X4.4803Y-3.5955
M16
G05
G00X4.5197Y-3.7955
M15
G01X4.4803Y-3.7955
M16
G05
G00X4.5197Y-3.9955
M15
G01X4.4803Y-3.9955
M16
G05
G00X4.7197Y-3.5955
M15
G01X4.6803Y-3.5955
M16
G05
G00X4.7197Y-3.7955
M15
G01X4.6803Y-3.7955
M16
G05
G00X4.7197Y-3.9955
M15
G01X4.6803Y-3.9955
M16
G05
T0
M30
