G04 #@! TF.GenerationSoftware,KiCad,Pcbnew,(5.1.9-0-10_14)*
G04 #@! TF.CreationDate,2021-07-10T16:18:32+02:00*
G04 #@! TF.ProjectId,3pdt-switch,33706474-2d73-4776-9974-63682e6b6963,rev?*
G04 #@! TF.SameCoordinates,Original*
G04 #@! TF.FileFunction,Soldermask,Top*
G04 #@! TF.FilePolarity,Negative*
%FSLAX46Y46*%
G04 Gerber Fmt 4.6, Leading zero omitted, Abs format (unit mm)*
G04 Created by KiCad (PCBNEW (5.1.9-0-10_14)) date 2021-07-10 16:18:32*
%MOMM*%
%LPD*%
G01*
G04 APERTURE LIST*
%ADD10C,0.150000*%
%ADD11C,0.010000*%
%ADD12R,3.816000X2.816000*%
%ADD13O,3.816000X2.816000*%
%ADD14O,1.930400X1.930400*%
%ADD15O,2.000000X2.000000*%
%ADD16O,2.032000X2.032000*%
%ADD17R,2.000000X2.000000*%
G04 APERTURE END LIST*
D10*
X123000000Y-101782571D02*
X123142857Y-101830190D01*
X123190476Y-101877809D01*
X123238095Y-101973047D01*
X123238095Y-102115904D01*
X123190476Y-102211142D01*
X123142857Y-102258761D01*
X123047619Y-102306380D01*
X122666666Y-102306380D01*
X122666666Y-101306380D01*
X123000000Y-101306380D01*
X123095238Y-101354000D01*
X123142857Y-101401619D01*
X123190476Y-101496857D01*
X123190476Y-101592095D01*
X123142857Y-101687333D01*
X123095238Y-101734952D01*
X123000000Y-101782571D01*
X122666666Y-101782571D01*
X124238095Y-102306380D02*
X123904761Y-101830190D01*
X123666666Y-102306380D02*
X123666666Y-101306380D01*
X124047619Y-101306380D01*
X124142857Y-101354000D01*
X124190476Y-101401619D01*
X124238095Y-101496857D01*
X124238095Y-101639714D01*
X124190476Y-101734952D01*
X124142857Y-101782571D01*
X124047619Y-101830190D01*
X123666666Y-101830190D01*
X124666666Y-102306380D02*
X124666666Y-101306380D01*
X125666666Y-101354000D02*
X125571428Y-101306380D01*
X125428571Y-101306380D01*
X125285714Y-101354000D01*
X125190476Y-101449238D01*
X125142857Y-101544476D01*
X125095238Y-101734952D01*
X125095238Y-101877809D01*
X125142857Y-102068285D01*
X125190476Y-102163523D01*
X125285714Y-102258761D01*
X125428571Y-102306380D01*
X125523809Y-102306380D01*
X125666666Y-102258761D01*
X125714285Y-102211142D01*
X125714285Y-101877809D01*
X125523809Y-101877809D01*
X126142857Y-102306380D02*
X126142857Y-101306380D01*
X126142857Y-101782571D02*
X126714285Y-101782571D01*
X126714285Y-102306380D02*
X126714285Y-101306380D01*
X127047619Y-101306380D02*
X127619047Y-101306380D01*
X127333333Y-102306380D02*
X127333333Y-101306380D01*
X127952380Y-102306380D02*
X127952380Y-101306380D01*
X128523809Y-102306380D01*
X128523809Y-101306380D01*
X129000000Y-101782571D02*
X129333333Y-101782571D01*
X129476190Y-102306380D02*
X129000000Y-102306380D01*
X129000000Y-101306380D01*
X129476190Y-101306380D01*
X129857142Y-102258761D02*
X130000000Y-102306380D01*
X130238095Y-102306380D01*
X130333333Y-102258761D01*
X130380952Y-102211142D01*
X130428571Y-102115904D01*
X130428571Y-102020666D01*
X130380952Y-101925428D01*
X130333333Y-101877809D01*
X130238095Y-101830190D01*
X130047619Y-101782571D01*
X129952380Y-101734952D01*
X129904761Y-101687333D01*
X129857142Y-101592095D01*
X129857142Y-101496857D01*
X129904761Y-101401619D01*
X129952380Y-101354000D01*
X130047619Y-101306380D01*
X130285714Y-101306380D01*
X130428571Y-101354000D01*
X130809523Y-102258761D02*
X130952380Y-102306380D01*
X131190476Y-102306380D01*
X131285714Y-102258761D01*
X131333333Y-102211142D01*
X131380952Y-102115904D01*
X131380952Y-102020666D01*
X131333333Y-101925428D01*
X131285714Y-101877809D01*
X131190476Y-101830190D01*
X131000000Y-101782571D01*
X130904761Y-101734952D01*
X130857142Y-101687333D01*
X130809523Y-101592095D01*
X130809523Y-101496857D01*
X130857142Y-101401619D01*
X130904761Y-101354000D01*
X131000000Y-101306380D01*
X131238095Y-101306380D01*
X131380952Y-101354000D01*
D11*
G36*
X104715390Y-101262675D02*
G01*
X104748260Y-101281294D01*
X104751418Y-101284318D01*
X104763479Y-101298178D01*
X104770905Y-101314204D01*
X104774364Y-101337868D01*
X104774523Y-101374643D01*
X104772050Y-101430000D01*
X104771161Y-101446243D01*
X104763686Y-101580950D01*
X104793016Y-101517450D01*
X104826960Y-101457523D01*
X104868714Y-101414047D01*
X104926107Y-101379420D01*
X104943497Y-101371397D01*
X104988827Y-101356919D01*
X105048969Y-101345090D01*
X105115194Y-101336858D01*
X105178769Y-101333167D01*
X105230965Y-101334965D01*
X105249945Y-101338187D01*
X105272910Y-101346987D01*
X105275133Y-101360920D01*
X105270132Y-101371712D01*
X105253128Y-101391724D01*
X105240919Y-101396799D01*
X105216090Y-101403144D01*
X105176507Y-101419880D01*
X105128715Y-101443561D01*
X105079259Y-101470741D01*
X105034685Y-101497973D01*
X105001539Y-101521813D01*
X104998425Y-101524471D01*
X104949239Y-101576234D01*
X104901260Y-101641859D01*
X104857820Y-101715078D01*
X104822248Y-101789623D01*
X104797872Y-101859226D01*
X104788024Y-101917617D01*
X104787967Y-101920675D01*
X104776865Y-101962138D01*
X104748063Y-101990930D01*
X104707244Y-102004307D01*
X104660089Y-101999521D01*
X104640636Y-101991864D01*
X104620324Y-101980304D01*
X104604428Y-101965635D01*
X104592413Y-101944829D01*
X104583744Y-101914856D01*
X104577887Y-101872689D01*
X104574306Y-101815300D01*
X104572467Y-101739661D01*
X104571835Y-101642742D01*
X104571800Y-101602122D01*
X104571910Y-101499698D01*
X104572765Y-101419861D01*
X104575148Y-101359797D01*
X104579843Y-101316692D01*
X104587634Y-101287734D01*
X104599306Y-101270110D01*
X104615642Y-101261004D01*
X104637427Y-101257605D01*
X104665444Y-101257099D01*
X104667957Y-101257099D01*
X104715390Y-101262675D01*
G37*
X104715390Y-101262675D02*
X104748260Y-101281294D01*
X104751418Y-101284318D01*
X104763479Y-101298178D01*
X104770905Y-101314204D01*
X104774364Y-101337868D01*
X104774523Y-101374643D01*
X104772050Y-101430000D01*
X104771161Y-101446243D01*
X104763686Y-101580950D01*
X104793016Y-101517450D01*
X104826960Y-101457523D01*
X104868714Y-101414047D01*
X104926107Y-101379420D01*
X104943497Y-101371397D01*
X104988827Y-101356919D01*
X105048969Y-101345090D01*
X105115194Y-101336858D01*
X105178769Y-101333167D01*
X105230965Y-101334965D01*
X105249945Y-101338187D01*
X105272910Y-101346987D01*
X105275133Y-101360920D01*
X105270132Y-101371712D01*
X105253128Y-101391724D01*
X105240919Y-101396799D01*
X105216090Y-101403144D01*
X105176507Y-101419880D01*
X105128715Y-101443561D01*
X105079259Y-101470741D01*
X105034685Y-101497973D01*
X105001539Y-101521813D01*
X104998425Y-101524471D01*
X104949239Y-101576234D01*
X104901260Y-101641859D01*
X104857820Y-101715078D01*
X104822248Y-101789623D01*
X104797872Y-101859226D01*
X104788024Y-101917617D01*
X104787967Y-101920675D01*
X104776865Y-101962138D01*
X104748063Y-101990930D01*
X104707244Y-102004307D01*
X104660089Y-101999521D01*
X104640636Y-101991864D01*
X104620324Y-101980304D01*
X104604428Y-101965635D01*
X104592413Y-101944829D01*
X104583744Y-101914856D01*
X104577887Y-101872689D01*
X104574306Y-101815300D01*
X104572467Y-101739661D01*
X104571835Y-101642742D01*
X104571800Y-101602122D01*
X104571910Y-101499698D01*
X104572765Y-101419861D01*
X104575148Y-101359797D01*
X104579843Y-101316692D01*
X104587634Y-101287734D01*
X104599306Y-101270110D01*
X104615642Y-101261004D01*
X104637427Y-101257605D01*
X104665444Y-101257099D01*
X104667957Y-101257099D01*
X104715390Y-101262675D01*
G36*
X96777914Y-101262683D02*
G01*
X96810786Y-101281316D01*
X96813891Y-101284291D01*
X96826175Y-101298460D01*
X96833595Y-101314830D01*
X96836858Y-101339058D01*
X96836674Y-101376797D01*
X96833750Y-101433703D01*
X96833383Y-101439866D01*
X96825683Y-101568250D01*
X96856601Y-101509170D01*
X96899441Y-101444859D01*
X96953410Y-101397184D01*
X97021441Y-101364746D01*
X97106468Y-101346150D01*
X97211425Y-101339999D01*
X97211859Y-101339997D01*
X97267445Y-101340534D01*
X97302386Y-101343096D01*
X97321407Y-101348495D01*
X97329234Y-101357543D01*
X97329957Y-101360275D01*
X97324492Y-101375176D01*
X97300368Y-101391979D01*
X97254681Y-101412661D01*
X97250414Y-101414379D01*
X97170588Y-101449831D01*
X97107559Y-101487044D01*
X97053010Y-101531588D01*
X97011604Y-101574329D01*
X96942023Y-101669184D01*
X96888569Y-101778858D01*
X96856958Y-101885562D01*
X96841993Y-101943233D01*
X96823652Y-101979738D01*
X96798236Y-101999307D01*
X96762042Y-102006172D01*
X96751268Y-102006400D01*
X96712480Y-101999057D01*
X96677616Y-101973644D01*
X96671145Y-101966956D01*
X96634300Y-101927513D01*
X96634300Y-101612264D01*
X96634395Y-101508171D01*
X96635182Y-101426706D01*
X96637410Y-101365095D01*
X96641831Y-101320566D01*
X96649196Y-101290346D01*
X96660254Y-101271662D01*
X96675758Y-101261741D01*
X96696456Y-101257811D01*
X96723101Y-101257100D01*
X96730457Y-101257099D01*
X96777914Y-101262683D01*
G37*
X96777914Y-101262683D02*
X96810786Y-101281316D01*
X96813891Y-101284291D01*
X96826175Y-101298460D01*
X96833595Y-101314830D01*
X96836858Y-101339058D01*
X96836674Y-101376797D01*
X96833750Y-101433703D01*
X96833383Y-101439866D01*
X96825683Y-101568250D01*
X96856601Y-101509170D01*
X96899441Y-101444859D01*
X96953410Y-101397184D01*
X97021441Y-101364746D01*
X97106468Y-101346150D01*
X97211425Y-101339999D01*
X97211859Y-101339997D01*
X97267445Y-101340534D01*
X97302386Y-101343096D01*
X97321407Y-101348495D01*
X97329234Y-101357543D01*
X97329957Y-101360275D01*
X97324492Y-101375176D01*
X97300368Y-101391979D01*
X97254681Y-101412661D01*
X97250414Y-101414379D01*
X97170588Y-101449831D01*
X97107559Y-101487044D01*
X97053010Y-101531588D01*
X97011604Y-101574329D01*
X96942023Y-101669184D01*
X96888569Y-101778858D01*
X96856958Y-101885562D01*
X96841993Y-101943233D01*
X96823652Y-101979738D01*
X96798236Y-101999307D01*
X96762042Y-102006172D01*
X96751268Y-102006400D01*
X96712480Y-101999057D01*
X96677616Y-101973644D01*
X96671145Y-101966956D01*
X96634300Y-101927513D01*
X96634300Y-101612264D01*
X96634395Y-101508171D01*
X96635182Y-101426706D01*
X96637410Y-101365095D01*
X96641831Y-101320566D01*
X96649196Y-101290346D01*
X96660254Y-101271662D01*
X96675758Y-101261741D01*
X96696456Y-101257811D01*
X96723101Y-101257100D01*
X96730457Y-101257099D01*
X96777914Y-101262683D01*
G36*
X97575562Y-101349419D02*
G01*
X97610948Y-101368562D01*
X97625174Y-101384613D01*
X97631518Y-101421281D01*
X97625387Y-101462971D01*
X97615081Y-101527088D01*
X97611913Y-101593934D01*
X97615178Y-101658765D01*
X97624171Y-101716836D01*
X97638188Y-101763404D01*
X97656522Y-101793724D01*
X97675950Y-101803200D01*
X97704555Y-101791588D01*
X97736419Y-101759742D01*
X97768945Y-101712143D01*
X97799537Y-101653273D01*
X97825601Y-101587613D01*
X97844541Y-101519644D01*
X97846890Y-101508051D01*
X97857580Y-101462270D01*
X97869594Y-101426349D01*
X97880423Y-101407711D01*
X97880926Y-101407341D01*
X97906039Y-101401463D01*
X97943794Y-101403097D01*
X97983077Y-101410757D01*
X98012777Y-101422955D01*
X98016135Y-101425424D01*
X98022686Y-101435093D01*
X98026970Y-101453607D01*
X98029127Y-101484481D01*
X98029298Y-101531230D01*
X98027626Y-101597370D01*
X98025452Y-101656642D01*
X98018758Y-101776931D01*
X98009118Y-101872233D01*
X97996485Y-101942794D01*
X97980816Y-101988860D01*
X97962064Y-102010678D01*
X97960456Y-102011373D01*
X97939712Y-102018118D01*
X97928291Y-102013203D01*
X97919686Y-102003225D01*
X97907116Y-101982146D01*
X97891068Y-101947972D01*
X97885002Y-101933375D01*
X97871478Y-101901327D01*
X97861922Y-101881986D01*
X97859767Y-101879400D01*
X97847630Y-101885135D01*
X97820674Y-101899785D01*
X97800821Y-101910997D01*
X97735771Y-101936153D01*
X97666745Y-101942559D01*
X97607340Y-101930766D01*
X97560799Y-101903463D01*
X97512894Y-101859542D01*
X97470664Y-101806354D01*
X97445582Y-101761818D01*
X97431845Y-101727775D01*
X97423042Y-101694428D01*
X97418160Y-101654688D01*
X97416190Y-101601466D01*
X97415997Y-101554214D01*
X97418045Y-101476350D01*
X97424597Y-101419980D01*
X97436974Y-101381398D01*
X97456496Y-101356899D01*
X97484485Y-101342777D01*
X97492099Y-101340646D01*
X97532457Y-101338962D01*
X97575562Y-101349419D01*
G37*
X97575562Y-101349419D02*
X97610948Y-101368562D01*
X97625174Y-101384613D01*
X97631518Y-101421281D01*
X97625387Y-101462971D01*
X97615081Y-101527088D01*
X97611913Y-101593934D01*
X97615178Y-101658765D01*
X97624171Y-101716836D01*
X97638188Y-101763404D01*
X97656522Y-101793724D01*
X97675950Y-101803200D01*
X97704555Y-101791588D01*
X97736419Y-101759742D01*
X97768945Y-101712143D01*
X97799537Y-101653273D01*
X97825601Y-101587613D01*
X97844541Y-101519644D01*
X97846890Y-101508051D01*
X97857580Y-101462270D01*
X97869594Y-101426349D01*
X97880423Y-101407711D01*
X97880926Y-101407341D01*
X97906039Y-101401463D01*
X97943794Y-101403097D01*
X97983077Y-101410757D01*
X98012777Y-101422955D01*
X98016135Y-101425424D01*
X98022686Y-101435093D01*
X98026970Y-101453607D01*
X98029127Y-101484481D01*
X98029298Y-101531230D01*
X98027626Y-101597370D01*
X98025452Y-101656642D01*
X98018758Y-101776931D01*
X98009118Y-101872233D01*
X97996485Y-101942794D01*
X97980816Y-101988860D01*
X97962064Y-102010678D01*
X97960456Y-102011373D01*
X97939712Y-102018118D01*
X97928291Y-102013203D01*
X97919686Y-102003225D01*
X97907116Y-101982146D01*
X97891068Y-101947972D01*
X97885002Y-101933375D01*
X97871478Y-101901327D01*
X97861922Y-101881986D01*
X97859767Y-101879400D01*
X97847630Y-101885135D01*
X97820674Y-101899785D01*
X97800821Y-101910997D01*
X97735771Y-101936153D01*
X97666745Y-101942559D01*
X97607340Y-101930766D01*
X97560799Y-101903463D01*
X97512894Y-101859542D01*
X97470664Y-101806354D01*
X97445582Y-101761818D01*
X97431845Y-101727775D01*
X97423042Y-101694428D01*
X97418160Y-101654688D01*
X97416190Y-101601466D01*
X97415997Y-101554214D01*
X97418045Y-101476350D01*
X97424597Y-101419980D01*
X97436974Y-101381398D01*
X97456496Y-101356899D01*
X97484485Y-101342777D01*
X97492099Y-101340646D01*
X97532457Y-101338962D01*
X97575562Y-101349419D01*
G36*
X104159709Y-101360042D02*
G01*
X104230431Y-101379141D01*
X104288739Y-101408453D01*
X104330927Y-101445861D01*
X104353290Y-101489250D01*
X104355900Y-101510635D01*
X104345719Y-101552011D01*
X104318157Y-101600334D01*
X104277683Y-101649600D01*
X104228765Y-101693806D01*
X104209014Y-101707948D01*
X104142299Y-101748761D01*
X104082955Y-101778366D01*
X104034891Y-101795101D01*
X104002017Y-101797305D01*
X103999955Y-101796740D01*
X103979703Y-101796064D01*
X103974547Y-101809002D01*
X103982076Y-101830768D01*
X103999878Y-101856575D01*
X104025541Y-101881636D01*
X104051240Y-101898522D01*
X104113354Y-101916798D01*
X104182038Y-101912393D01*
X104254142Y-101886093D01*
X104326514Y-101838681D01*
X104341284Y-101826262D01*
X104382509Y-101798995D01*
X104416350Y-101794904D01*
X104441435Y-101813908D01*
X104450497Y-101832703D01*
X104453463Y-101877254D01*
X104434133Y-101922515D01*
X104395125Y-101964254D01*
X104351882Y-101992076D01*
X104291626Y-102013490D01*
X104217716Y-102026059D01*
X104140582Y-102029013D01*
X104070652Y-102021580D01*
X104044750Y-102014786D01*
X103941971Y-101969848D01*
X103859332Y-101910050D01*
X103797337Y-101836010D01*
X103756491Y-101748345D01*
X103737299Y-101647672D01*
X103737003Y-101643255D01*
X103917954Y-101643255D01*
X103924366Y-101657471D01*
X103941972Y-101673221D01*
X103949756Y-101676200D01*
X103963512Y-101668849D01*
X103992025Y-101649178D01*
X104030235Y-101620754D01*
X104049801Y-101605624D01*
X104094296Y-101569481D01*
X104121609Y-101543075D01*
X104135550Y-101521842D01*
X104139931Y-101501224D01*
X104140000Y-101497674D01*
X104136484Y-101471218D01*
X104121764Y-101459774D01*
X104089584Y-101459193D01*
X104082850Y-101459788D01*
X104044908Y-101471908D01*
X104005800Y-101498084D01*
X103969539Y-101533312D01*
X103940135Y-101572586D01*
X103921603Y-101610902D01*
X103917954Y-101643255D01*
X103737003Y-101643255D01*
X103736657Y-101638100D01*
X103736512Y-101574064D01*
X103746706Y-101524597D01*
X103770567Y-101484614D01*
X103811423Y-101449031D01*
X103872605Y-101412764D01*
X103890150Y-101403664D01*
X103942393Y-101378277D01*
X103982484Y-101363155D01*
X104020180Y-101355714D01*
X104065237Y-101353367D01*
X104080277Y-101353271D01*
X104159709Y-101360042D01*
G37*
X104159709Y-101360042D02*
X104230431Y-101379141D01*
X104288739Y-101408453D01*
X104330927Y-101445861D01*
X104353290Y-101489250D01*
X104355900Y-101510635D01*
X104345719Y-101552011D01*
X104318157Y-101600334D01*
X104277683Y-101649600D01*
X104228765Y-101693806D01*
X104209014Y-101707948D01*
X104142299Y-101748761D01*
X104082955Y-101778366D01*
X104034891Y-101795101D01*
X104002017Y-101797305D01*
X103999955Y-101796740D01*
X103979703Y-101796064D01*
X103974547Y-101809002D01*
X103982076Y-101830768D01*
X103999878Y-101856575D01*
X104025541Y-101881636D01*
X104051240Y-101898522D01*
X104113354Y-101916798D01*
X104182038Y-101912393D01*
X104254142Y-101886093D01*
X104326514Y-101838681D01*
X104341284Y-101826262D01*
X104382509Y-101798995D01*
X104416350Y-101794904D01*
X104441435Y-101813908D01*
X104450497Y-101832703D01*
X104453463Y-101877254D01*
X104434133Y-101922515D01*
X104395125Y-101964254D01*
X104351882Y-101992076D01*
X104291626Y-102013490D01*
X104217716Y-102026059D01*
X104140582Y-102029013D01*
X104070652Y-102021580D01*
X104044750Y-102014786D01*
X103941971Y-101969848D01*
X103859332Y-101910050D01*
X103797337Y-101836010D01*
X103756491Y-101748345D01*
X103737299Y-101647672D01*
X103737003Y-101643255D01*
X103917954Y-101643255D01*
X103924366Y-101657471D01*
X103941972Y-101673221D01*
X103949756Y-101676200D01*
X103963512Y-101668849D01*
X103992025Y-101649178D01*
X104030235Y-101620754D01*
X104049801Y-101605624D01*
X104094296Y-101569481D01*
X104121609Y-101543075D01*
X104135550Y-101521842D01*
X104139931Y-101501224D01*
X104140000Y-101497674D01*
X104136484Y-101471218D01*
X104121764Y-101459774D01*
X104089584Y-101459193D01*
X104082850Y-101459788D01*
X104044908Y-101471908D01*
X104005800Y-101498084D01*
X103969539Y-101533312D01*
X103940135Y-101572586D01*
X103921603Y-101610902D01*
X103917954Y-101643255D01*
X103737003Y-101643255D01*
X103736657Y-101638100D01*
X103736512Y-101574064D01*
X103746706Y-101524597D01*
X103770567Y-101484614D01*
X103811423Y-101449031D01*
X103872605Y-101412764D01*
X103890150Y-101403664D01*
X103942393Y-101378277D01*
X103982484Y-101363155D01*
X104020180Y-101355714D01*
X104065237Y-101353367D01*
X104080277Y-101353271D01*
X104159709Y-101360042D01*
G36*
X101764348Y-101355902D02*
G01*
X101808897Y-101364411D01*
X101854880Y-101382580D01*
X101872162Y-101390970D01*
X101930185Y-101428026D01*
X101963496Y-101469465D01*
X101972225Y-101516113D01*
X101956500Y-101568795D01*
X101916451Y-101628335D01*
X101910458Y-101635465D01*
X101867830Y-101676895D01*
X101814033Y-101717214D01*
X101755638Y-101752622D01*
X101699218Y-101779318D01*
X101651345Y-101793503D01*
X101634925Y-101794807D01*
X101600484Y-101798101D01*
X101588635Y-101810820D01*
X101599143Y-101834187D01*
X101622225Y-101860111D01*
X101679351Y-101901972D01*
X101742327Y-101919213D01*
X101810851Y-101911859D01*
X101884621Y-101879934D01*
X101951387Y-101833368D01*
X101998315Y-101801949D01*
X102033646Y-101792936D01*
X102057174Y-101806276D01*
X102068690Y-101841913D01*
X102069900Y-101864856D01*
X102058117Y-101909557D01*
X102026134Y-101952370D01*
X101978996Y-101988614D01*
X101921746Y-102013611D01*
X101904912Y-102017889D01*
X101798956Y-102030533D01*
X101699261Y-102022635D01*
X101641704Y-102007039D01*
X101546636Y-101960282D01*
X101465350Y-101894794D01*
X101401551Y-101813988D01*
X101373329Y-101759854D01*
X101358025Y-101708991D01*
X101349941Y-101649655D01*
X101349839Y-101636445D01*
X101537568Y-101636445D01*
X101541081Y-101657121D01*
X101552617Y-101672805D01*
X101571869Y-101672655D01*
X101602622Y-101655767D01*
X101629922Y-101635884D01*
X101693644Y-101584545D01*
X101736400Y-101543636D01*
X101759464Y-101511311D01*
X101764106Y-101485729D01*
X101751601Y-101465043D01*
X101749225Y-101462981D01*
X101719727Y-101453447D01*
X101682642Y-101462198D01*
X101642376Y-101485125D01*
X101603331Y-101518121D01*
X101569912Y-101557078D01*
X101546523Y-101597889D01*
X101537568Y-101636445D01*
X101349839Y-101636445D01*
X101349489Y-101591233D01*
X101357079Y-101543115D01*
X101363179Y-101527416D01*
X101405928Y-101470387D01*
X101468204Y-101421956D01*
X101544855Y-101384714D01*
X101630730Y-101361251D01*
X101707950Y-101354069D01*
X101764348Y-101355902D01*
G37*
X101764348Y-101355902D02*
X101808897Y-101364411D01*
X101854880Y-101382580D01*
X101872162Y-101390970D01*
X101930185Y-101428026D01*
X101963496Y-101469465D01*
X101972225Y-101516113D01*
X101956500Y-101568795D01*
X101916451Y-101628335D01*
X101910458Y-101635465D01*
X101867830Y-101676895D01*
X101814033Y-101717214D01*
X101755638Y-101752622D01*
X101699218Y-101779318D01*
X101651345Y-101793503D01*
X101634925Y-101794807D01*
X101600484Y-101798101D01*
X101588635Y-101810820D01*
X101599143Y-101834187D01*
X101622225Y-101860111D01*
X101679351Y-101901972D01*
X101742327Y-101919213D01*
X101810851Y-101911859D01*
X101884621Y-101879934D01*
X101951387Y-101833368D01*
X101998315Y-101801949D01*
X102033646Y-101792936D01*
X102057174Y-101806276D01*
X102068690Y-101841913D01*
X102069900Y-101864856D01*
X102058117Y-101909557D01*
X102026134Y-101952370D01*
X101978996Y-101988614D01*
X101921746Y-102013611D01*
X101904912Y-102017889D01*
X101798956Y-102030533D01*
X101699261Y-102022635D01*
X101641704Y-102007039D01*
X101546636Y-101960282D01*
X101465350Y-101894794D01*
X101401551Y-101813988D01*
X101373329Y-101759854D01*
X101358025Y-101708991D01*
X101349941Y-101649655D01*
X101349839Y-101636445D01*
X101537568Y-101636445D01*
X101541081Y-101657121D01*
X101552617Y-101672805D01*
X101571869Y-101672655D01*
X101602622Y-101655767D01*
X101629922Y-101635884D01*
X101693644Y-101584545D01*
X101736400Y-101543636D01*
X101759464Y-101511311D01*
X101764106Y-101485729D01*
X101751601Y-101465043D01*
X101749225Y-101462981D01*
X101719727Y-101453447D01*
X101682642Y-101462198D01*
X101642376Y-101485125D01*
X101603331Y-101518121D01*
X101569912Y-101557078D01*
X101546523Y-101597889D01*
X101537568Y-101636445D01*
X101349839Y-101636445D01*
X101349489Y-101591233D01*
X101357079Y-101543115D01*
X101363179Y-101527416D01*
X101405928Y-101470387D01*
X101468204Y-101421956D01*
X101544855Y-101384714D01*
X101630730Y-101361251D01*
X101707950Y-101354069D01*
X101764348Y-101355902D01*
G36*
X102517858Y-101313636D02*
G01*
X102603566Y-101336688D01*
X102677987Y-101380702D01*
X102699787Y-101399296D01*
X102731529Y-101432797D01*
X102756016Y-101470123D01*
X102774565Y-101515532D01*
X102788495Y-101573281D01*
X102799122Y-101647627D01*
X102807763Y-101742827D01*
X102808297Y-101749972D01*
X102814224Y-101841711D01*
X102816413Y-101911022D01*
X102814536Y-101960646D01*
X102808266Y-101993325D01*
X102797276Y-102011801D01*
X102781236Y-102018815D01*
X102776142Y-102019100D01*
X102745412Y-102009985D01*
X102724243Y-101994024D01*
X102692745Y-101967543D01*
X102661729Y-101962432D01*
X102625530Y-101978717D01*
X102604116Y-101994570D01*
X102571897Y-102017564D01*
X102540670Y-102030780D01*
X102500298Y-102037584D01*
X102467362Y-102039995D01*
X102401964Y-102040031D01*
X102349582Y-102030626D01*
X102323900Y-102021569D01*
X102268063Y-101996600D01*
X102230311Y-101973309D01*
X102204127Y-101947064D01*
X102190550Y-101926780D01*
X102172986Y-101876354D01*
X102349300Y-101876354D01*
X102357437Y-101917144D01*
X102381702Y-101938446D01*
X102421873Y-101940213D01*
X102477728Y-101922396D01*
X102503726Y-101910123D01*
X102562691Y-101876556D01*
X102600682Y-101844505D01*
X102621405Y-101809481D01*
X102628565Y-101766994D01*
X102628700Y-101758750D01*
X102620650Y-101706548D01*
X102598689Y-101668344D01*
X102566103Y-101648098D01*
X102536129Y-101647179D01*
X102490548Y-101666624D01*
X102443864Y-101704029D01*
X102401454Y-101752796D01*
X102368698Y-101806328D01*
X102350975Y-101858026D01*
X102349300Y-101876354D01*
X102172986Y-101876354D01*
X102170176Y-101868287D01*
X102172799Y-101803265D01*
X102197741Y-101734384D01*
X102244322Y-101664313D01*
X102262606Y-101643250D01*
X102325258Y-101587454D01*
X102395500Y-101551026D01*
X102479897Y-101530805D01*
X102501655Y-101528150D01*
X102554960Y-101518887D01*
X102583727Y-101504568D01*
X102588387Y-101484797D01*
X102572809Y-101462490D01*
X102557093Y-101451872D01*
X102532583Y-101445892D01*
X102493606Y-101443778D01*
X102440897Y-101444563D01*
X102368941Y-101445756D01*
X102318634Y-101443652D01*
X102286328Y-101437271D01*
X102268379Y-101425635D01*
X102261141Y-101407764D01*
X102260400Y-101396083D01*
X102269179Y-101361420D01*
X102296779Y-101336347D01*
X102345095Y-101319841D01*
X102416023Y-101310876D01*
X102418267Y-101310729D01*
X102517858Y-101313636D01*
G37*
X102517858Y-101313636D02*
X102603566Y-101336688D01*
X102677987Y-101380702D01*
X102699787Y-101399296D01*
X102731529Y-101432797D01*
X102756016Y-101470123D01*
X102774565Y-101515532D01*
X102788495Y-101573281D01*
X102799122Y-101647627D01*
X102807763Y-101742827D01*
X102808297Y-101749972D01*
X102814224Y-101841711D01*
X102816413Y-101911022D01*
X102814536Y-101960646D01*
X102808266Y-101993325D01*
X102797276Y-102011801D01*
X102781236Y-102018815D01*
X102776142Y-102019100D01*
X102745412Y-102009985D01*
X102724243Y-101994024D01*
X102692745Y-101967543D01*
X102661729Y-101962432D01*
X102625530Y-101978717D01*
X102604116Y-101994570D01*
X102571897Y-102017564D01*
X102540670Y-102030780D01*
X102500298Y-102037584D01*
X102467362Y-102039995D01*
X102401964Y-102040031D01*
X102349582Y-102030626D01*
X102323900Y-102021569D01*
X102268063Y-101996600D01*
X102230311Y-101973309D01*
X102204127Y-101947064D01*
X102190550Y-101926780D01*
X102172986Y-101876354D01*
X102349300Y-101876354D01*
X102357437Y-101917144D01*
X102381702Y-101938446D01*
X102421873Y-101940213D01*
X102477728Y-101922396D01*
X102503726Y-101910123D01*
X102562691Y-101876556D01*
X102600682Y-101844505D01*
X102621405Y-101809481D01*
X102628565Y-101766994D01*
X102628700Y-101758750D01*
X102620650Y-101706548D01*
X102598689Y-101668344D01*
X102566103Y-101648098D01*
X102536129Y-101647179D01*
X102490548Y-101666624D01*
X102443864Y-101704029D01*
X102401454Y-101752796D01*
X102368698Y-101806328D01*
X102350975Y-101858026D01*
X102349300Y-101876354D01*
X102172986Y-101876354D01*
X102170176Y-101868287D01*
X102172799Y-101803265D01*
X102197741Y-101734384D01*
X102244322Y-101664313D01*
X102262606Y-101643250D01*
X102325258Y-101587454D01*
X102395500Y-101551026D01*
X102479897Y-101530805D01*
X102501655Y-101528150D01*
X102554960Y-101518887D01*
X102583727Y-101504568D01*
X102588387Y-101484797D01*
X102572809Y-101462490D01*
X102557093Y-101451872D01*
X102532583Y-101445892D01*
X102493606Y-101443778D01*
X102440897Y-101444563D01*
X102368941Y-101445756D01*
X102318634Y-101443652D01*
X102286328Y-101437271D01*
X102268379Y-101425635D01*
X102261141Y-101407764D01*
X102260400Y-101396083D01*
X102269179Y-101361420D01*
X102296779Y-101336347D01*
X102345095Y-101319841D01*
X102416023Y-101310876D01*
X102418267Y-101310729D01*
X102517858Y-101313636D01*
G36*
X98420876Y-101341618D02*
G01*
X98458942Y-101363583D01*
X98481018Y-101395203D01*
X98482739Y-101430723D01*
X98479363Y-101453728D01*
X98489613Y-101458892D01*
X98503747Y-101456102D01*
X98558982Y-101445905D01*
X98620619Y-101439974D01*
X98679788Y-101438668D01*
X98727620Y-101442348D01*
X98744977Y-101446321D01*
X98801691Y-101477969D01*
X98849304Y-101530727D01*
X98885908Y-101601344D01*
X98909597Y-101686570D01*
X98916432Y-101738524D01*
X98918526Y-101827575D01*
X98907978Y-101894740D01*
X98884708Y-101940206D01*
X98848636Y-101964164D01*
X98819607Y-101968300D01*
X98790975Y-101965502D01*
X98770559Y-101954595D01*
X98756629Y-101931807D01*
X98747455Y-101893364D01*
X98741308Y-101835495D01*
X98738432Y-101791283D01*
X98733497Y-101717746D01*
X98727253Y-101665865D01*
X98717847Y-101631905D01*
X98703424Y-101612127D01*
X98682133Y-101602795D01*
X98652119Y-101600171D01*
X98643628Y-101600124D01*
X98597244Y-101605581D01*
X98547119Y-101619741D01*
X98500416Y-101639550D01*
X98464294Y-101661951D01*
X98445915Y-101683890D01*
X98445692Y-101684575D01*
X98440757Y-101705799D01*
X98432631Y-101746216D01*
X98422449Y-101799989D01*
X98411533Y-101860230D01*
X98400055Y-101921355D01*
X98388859Y-101974724D01*
X98379237Y-102014539D01*
X98372564Y-102034855D01*
X98350253Y-102051827D01*
X98313132Y-102055817D01*
X98268578Y-102046209D01*
X98262890Y-102044035D01*
X98239235Y-102029119D01*
X98223847Y-102004457D01*
X98216049Y-101966413D01*
X98215167Y-101911355D01*
X98220524Y-101835648D01*
X98221766Y-101822870D01*
X98232702Y-101721405D01*
X98244585Y-101625635D01*
X98256886Y-101538775D01*
X98269078Y-101464044D01*
X98280630Y-101404658D01*
X98291016Y-101363835D01*
X98299705Y-101344792D01*
X98300413Y-101344239D01*
X98322923Y-101337590D01*
X98358932Y-101333807D01*
X98371602Y-101333494D01*
X98420876Y-101341618D01*
G37*
X98420876Y-101341618D02*
X98458942Y-101363583D01*
X98481018Y-101395203D01*
X98482739Y-101430723D01*
X98479363Y-101453728D01*
X98489613Y-101458892D01*
X98503747Y-101456102D01*
X98558982Y-101445905D01*
X98620619Y-101439974D01*
X98679788Y-101438668D01*
X98727620Y-101442348D01*
X98744977Y-101446321D01*
X98801691Y-101477969D01*
X98849304Y-101530727D01*
X98885908Y-101601344D01*
X98909597Y-101686570D01*
X98916432Y-101738524D01*
X98918526Y-101827575D01*
X98907978Y-101894740D01*
X98884708Y-101940206D01*
X98848636Y-101964164D01*
X98819607Y-101968300D01*
X98790975Y-101965502D01*
X98770559Y-101954595D01*
X98756629Y-101931807D01*
X98747455Y-101893364D01*
X98741308Y-101835495D01*
X98738432Y-101791283D01*
X98733497Y-101717746D01*
X98727253Y-101665865D01*
X98717847Y-101631905D01*
X98703424Y-101612127D01*
X98682133Y-101602795D01*
X98652119Y-101600171D01*
X98643628Y-101600124D01*
X98597244Y-101605581D01*
X98547119Y-101619741D01*
X98500416Y-101639550D01*
X98464294Y-101661951D01*
X98445915Y-101683890D01*
X98445692Y-101684575D01*
X98440757Y-101705799D01*
X98432631Y-101746216D01*
X98422449Y-101799989D01*
X98411533Y-101860230D01*
X98400055Y-101921355D01*
X98388859Y-101974724D01*
X98379237Y-102014539D01*
X98372564Y-102034855D01*
X98350253Y-102051827D01*
X98313132Y-102055817D01*
X98268578Y-102046209D01*
X98262890Y-102044035D01*
X98239235Y-102029119D01*
X98223847Y-102004457D01*
X98216049Y-101966413D01*
X98215167Y-101911355D01*
X98220524Y-101835648D01*
X98221766Y-101822870D01*
X98232702Y-101721405D01*
X98244585Y-101625635D01*
X98256886Y-101538775D01*
X98269078Y-101464044D01*
X98280630Y-101404658D01*
X98291016Y-101363835D01*
X98299705Y-101344792D01*
X98300413Y-101344239D01*
X98322923Y-101337590D01*
X98358932Y-101333807D01*
X98371602Y-101333494D01*
X98420876Y-101341618D01*
G36*
X99242752Y-100871260D02*
G01*
X99279585Y-100891216D01*
X99305561Y-100917827D01*
X99313382Y-100942197D01*
X99311865Y-100959768D01*
X99308051Y-100998075D01*
X99302405Y-101052606D01*
X99295395Y-101118848D01*
X99289407Y-101174550D01*
X99281938Y-101245530D01*
X99275855Y-101307138D01*
X99271538Y-101355194D01*
X99269367Y-101385517D01*
X99269428Y-101394194D01*
X99279427Y-101388327D01*
X99300972Y-101369186D01*
X99314334Y-101356094D01*
X99366671Y-101308765D01*
X99411603Y-101281058D01*
X99453823Y-101270260D01*
X99463539Y-101269883D01*
X99495495Y-101274477D01*
X99513159Y-101292541D01*
X99517851Y-101303264D01*
X99523519Y-101323784D01*
X99521743Y-101343470D01*
X99510124Y-101367290D01*
X99486261Y-101400212D01*
X99449074Y-101445626D01*
X99423444Y-101480519D01*
X99406677Y-101511525D01*
X99402900Y-101525990D01*
X99411441Y-101549222D01*
X99434677Y-101585905D01*
X99469028Y-101631849D01*
X99510912Y-101682866D01*
X99556750Y-101734767D01*
X99602960Y-101783364D01*
X99645961Y-101824466D01*
X99682173Y-101853886D01*
X99684651Y-101855596D01*
X99732098Y-101891817D01*
X99756226Y-101919495D01*
X99757305Y-101937752D01*
X99735602Y-101945710D01*
X99691386Y-101942490D01*
X99660027Y-101936209D01*
X99620036Y-101924887D01*
X99582179Y-101908687D01*
X99542425Y-101884901D01*
X99496741Y-101850820D01*
X99441095Y-101803737D01*
X99377500Y-101746484D01*
X99256850Y-101636020D01*
X99253185Y-101684685D01*
X99250920Y-101716648D01*
X99247524Y-101766864D01*
X99243472Y-101828237D01*
X99239561Y-101888612D01*
X99232142Y-101972032D01*
X99221348Y-102032276D01*
X99205955Y-102071476D01*
X99184738Y-102091767D01*
X99156472Y-102095280D01*
X99125854Y-102086615D01*
X99109238Y-102070682D01*
X99096066Y-102046343D01*
X99092415Y-102023845D01*
X99089512Y-101979109D01*
X99087357Y-101915287D01*
X99085950Y-101835530D01*
X99085291Y-101742988D01*
X99085380Y-101640814D01*
X99086217Y-101532158D01*
X99087802Y-101420172D01*
X99090135Y-101308006D01*
X99093216Y-101198813D01*
X99096072Y-101119406D01*
X99099891Y-101032761D01*
X99104381Y-100968248D01*
X99110901Y-100922608D01*
X99120806Y-100892582D01*
X99135456Y-100874911D01*
X99156207Y-100866336D01*
X99184416Y-100863598D01*
X99202704Y-100863400D01*
X99242752Y-100871260D01*
G37*
X99242752Y-100871260D02*
X99279585Y-100891216D01*
X99305561Y-100917827D01*
X99313382Y-100942197D01*
X99311865Y-100959768D01*
X99308051Y-100998075D01*
X99302405Y-101052606D01*
X99295395Y-101118848D01*
X99289407Y-101174550D01*
X99281938Y-101245530D01*
X99275855Y-101307138D01*
X99271538Y-101355194D01*
X99269367Y-101385517D01*
X99269428Y-101394194D01*
X99279427Y-101388327D01*
X99300972Y-101369186D01*
X99314334Y-101356094D01*
X99366671Y-101308765D01*
X99411603Y-101281058D01*
X99453823Y-101270260D01*
X99463539Y-101269883D01*
X99495495Y-101274477D01*
X99513159Y-101292541D01*
X99517851Y-101303264D01*
X99523519Y-101323784D01*
X99521743Y-101343470D01*
X99510124Y-101367290D01*
X99486261Y-101400212D01*
X99449074Y-101445626D01*
X99423444Y-101480519D01*
X99406677Y-101511525D01*
X99402900Y-101525990D01*
X99411441Y-101549222D01*
X99434677Y-101585905D01*
X99469028Y-101631849D01*
X99510912Y-101682866D01*
X99556750Y-101734767D01*
X99602960Y-101783364D01*
X99645961Y-101824466D01*
X99682173Y-101853886D01*
X99684651Y-101855596D01*
X99732098Y-101891817D01*
X99756226Y-101919495D01*
X99757305Y-101937752D01*
X99735602Y-101945710D01*
X99691386Y-101942490D01*
X99660027Y-101936209D01*
X99620036Y-101924887D01*
X99582179Y-101908687D01*
X99542425Y-101884901D01*
X99496741Y-101850820D01*
X99441095Y-101803737D01*
X99377500Y-101746484D01*
X99256850Y-101636020D01*
X99253185Y-101684685D01*
X99250920Y-101716648D01*
X99247524Y-101766864D01*
X99243472Y-101828237D01*
X99239561Y-101888612D01*
X99232142Y-101972032D01*
X99221348Y-102032276D01*
X99205955Y-102071476D01*
X99184738Y-102091767D01*
X99156472Y-102095280D01*
X99125854Y-102086615D01*
X99109238Y-102070682D01*
X99096066Y-102046343D01*
X99092415Y-102023845D01*
X99089512Y-101979109D01*
X99087357Y-101915287D01*
X99085950Y-101835530D01*
X99085291Y-101742988D01*
X99085380Y-101640814D01*
X99086217Y-101532158D01*
X99087802Y-101420172D01*
X99090135Y-101308006D01*
X99093216Y-101198813D01*
X99096072Y-101119406D01*
X99099891Y-101032761D01*
X99104381Y-100968248D01*
X99110901Y-100922608D01*
X99120806Y-100892582D01*
X99135456Y-100874911D01*
X99156207Y-100866336D01*
X99184416Y-100863598D01*
X99202704Y-100863400D01*
X99242752Y-100871260D01*
G36*
X103603221Y-101382240D02*
G01*
X103622383Y-101408101D01*
X103631849Y-101438994D01*
X103632000Y-101442900D01*
X103627598Y-101461538D01*
X103615403Y-101499752D01*
X103596926Y-101553484D01*
X103573680Y-101618675D01*
X103547177Y-101691269D01*
X103518929Y-101767207D01*
X103490449Y-101842432D01*
X103463250Y-101912885D01*
X103438843Y-101974509D01*
X103418742Y-102023245D01*
X103404458Y-102055036D01*
X103402227Y-102059391D01*
X103381586Y-102081354D01*
X103349332Y-102101109D01*
X103345635Y-102102725D01*
X103312376Y-102115467D01*
X103290712Y-102118714D01*
X103269226Y-102113727D01*
X103263700Y-102111762D01*
X103239824Y-102100568D01*
X103218646Y-102083772D01*
X103198671Y-102058473D01*
X103178406Y-102021771D01*
X103156358Y-101970766D01*
X103131032Y-101902558D01*
X103100934Y-101814246D01*
X103084078Y-101763019D01*
X103058522Y-101682949D01*
X103036442Y-101610251D01*
X103018869Y-101548615D01*
X103006831Y-101501733D01*
X103001360Y-101473292D01*
X103001458Y-101466999D01*
X103022620Y-101443534D01*
X103058056Y-101431240D01*
X103098054Y-101432934D01*
X103108125Y-101436060D01*
X103145010Y-101454850D01*
X103174748Y-101482786D01*
X103200498Y-101524402D01*
X103225419Y-101584228D01*
X103239031Y-101623831D01*
X103256977Y-101677363D01*
X103272913Y-101722863D01*
X103284654Y-101754197D01*
X103288930Y-101763930D01*
X103298223Y-101762949D01*
X103315838Y-101740257D01*
X103342210Y-101695198D01*
X103369691Y-101643032D01*
X103426857Y-101541542D01*
X103482164Y-101464055D01*
X103505724Y-101437826D01*
X103538766Y-101405471D01*
X103565496Y-101381832D01*
X103580659Y-101371522D01*
X103581428Y-101371399D01*
X103603221Y-101382240D01*
G37*
X103603221Y-101382240D02*
X103622383Y-101408101D01*
X103631849Y-101438994D01*
X103632000Y-101442900D01*
X103627598Y-101461538D01*
X103615403Y-101499752D01*
X103596926Y-101553484D01*
X103573680Y-101618675D01*
X103547177Y-101691269D01*
X103518929Y-101767207D01*
X103490449Y-101842432D01*
X103463250Y-101912885D01*
X103438843Y-101974509D01*
X103418742Y-102023245D01*
X103404458Y-102055036D01*
X103402227Y-102059391D01*
X103381586Y-102081354D01*
X103349332Y-102101109D01*
X103345635Y-102102725D01*
X103312376Y-102115467D01*
X103290712Y-102118714D01*
X103269226Y-102113727D01*
X103263700Y-102111762D01*
X103239824Y-102100568D01*
X103218646Y-102083772D01*
X103198671Y-102058473D01*
X103178406Y-102021771D01*
X103156358Y-101970766D01*
X103131032Y-101902558D01*
X103100934Y-101814246D01*
X103084078Y-101763019D01*
X103058522Y-101682949D01*
X103036442Y-101610251D01*
X103018869Y-101548615D01*
X103006831Y-101501733D01*
X103001360Y-101473292D01*
X103001458Y-101466999D01*
X103022620Y-101443534D01*
X103058056Y-101431240D01*
X103098054Y-101432934D01*
X103108125Y-101436060D01*
X103145010Y-101454850D01*
X103174748Y-101482786D01*
X103200498Y-101524402D01*
X103225419Y-101584228D01*
X103239031Y-101623831D01*
X103256977Y-101677363D01*
X103272913Y-101722863D01*
X103284654Y-101754197D01*
X103288930Y-101763930D01*
X103298223Y-101762949D01*
X103315838Y-101740257D01*
X103342210Y-101695198D01*
X103369691Y-101643032D01*
X103426857Y-101541542D01*
X103482164Y-101464055D01*
X103505724Y-101437826D01*
X103538766Y-101405471D01*
X103565496Y-101381832D01*
X103580659Y-101371522D01*
X103581428Y-101371399D01*
X103603221Y-101382240D01*
G36*
X95744720Y-100811202D02*
G01*
X95848903Y-100827467D01*
X95937979Y-100848003D01*
X96080034Y-100891327D01*
X96197934Y-100941234D01*
X96292127Y-100997992D01*
X96363059Y-101061869D01*
X96410418Y-101131599D01*
X96433157Y-101187729D01*
X96442965Y-101242320D01*
X96438888Y-101298585D01*
X96419973Y-101359734D01*
X96385268Y-101428977D01*
X96333819Y-101509528D01*
X96273519Y-101592871D01*
X96174360Y-101716400D01*
X96073585Y-101825965D01*
X95972904Y-101920427D01*
X95874025Y-101998648D01*
X95778660Y-102059489D01*
X95688518Y-102101811D01*
X95605309Y-102124476D01*
X95530743Y-102126344D01*
X95488004Y-102115974D01*
X95435035Y-102091172D01*
X95401128Y-102061739D01*
X95388954Y-102043106D01*
X95384795Y-102017388D01*
X95386872Y-101969158D01*
X95389199Y-101949192D01*
X95571347Y-101949192D01*
X95573366Y-101966152D01*
X95579161Y-101974387D01*
X95588417Y-101975882D01*
X95600822Y-101972625D01*
X95601944Y-101972217D01*
X95623571Y-101961787D01*
X95659468Y-101942061D01*
X95702293Y-101917088D01*
X95707122Y-101914188D01*
X95848475Y-101814903D01*
X95976353Y-101696537D01*
X96087464Y-101562713D01*
X96178519Y-101417053D01*
X96202873Y-101368554D01*
X96232119Y-101287136D01*
X96239408Y-101214404D01*
X96225050Y-101151903D01*
X96189353Y-101101177D01*
X96142673Y-101068577D01*
X96095506Y-101047826D01*
X96037751Y-101027283D01*
X95973818Y-101007937D01*
X95908116Y-100990778D01*
X95845055Y-100976796D01*
X95789044Y-100966980D01*
X95744493Y-100962320D01*
X95715812Y-100963805D01*
X95707200Y-100970849D01*
X95714678Y-100985866D01*
X95733221Y-101011151D01*
X95738950Y-101018116D01*
X95759619Y-101047150D01*
X95770298Y-101070886D01*
X95770700Y-101074286D01*
X95767727Y-101091141D01*
X95759352Y-101129178D01*
X95746388Y-101184951D01*
X95729647Y-101255013D01*
X95709942Y-101335918D01*
X95689291Y-101419387D01*
X95656095Y-101553018D01*
X95628871Y-101664025D01*
X95607304Y-101754393D01*
X95591083Y-101826108D01*
X95579892Y-101881156D01*
X95573418Y-101921522D01*
X95571347Y-101949192D01*
X95389199Y-101949192D01*
X95394883Y-101900447D01*
X95408524Y-101813289D01*
X95427493Y-101709715D01*
X95451487Y-101591757D01*
X95466500Y-101522466D01*
X95484868Y-101435881D01*
X95503045Y-101344053D01*
X95519443Y-101255433D01*
X95532472Y-101178469D01*
X95537596Y-101144382D01*
X95559280Y-100989882D01*
X95517750Y-100947033D01*
X95488723Y-100909663D01*
X95483239Y-100879097D01*
X95501663Y-100851752D01*
X95529441Y-100832337D01*
X95582318Y-100813535D01*
X95654968Y-100806524D01*
X95744720Y-100811202D01*
G37*
X95744720Y-100811202D02*
X95848903Y-100827467D01*
X95937979Y-100848003D01*
X96080034Y-100891327D01*
X96197934Y-100941234D01*
X96292127Y-100997992D01*
X96363059Y-101061869D01*
X96410418Y-101131599D01*
X96433157Y-101187729D01*
X96442965Y-101242320D01*
X96438888Y-101298585D01*
X96419973Y-101359734D01*
X96385268Y-101428977D01*
X96333819Y-101509528D01*
X96273519Y-101592871D01*
X96174360Y-101716400D01*
X96073585Y-101825965D01*
X95972904Y-101920427D01*
X95874025Y-101998648D01*
X95778660Y-102059489D01*
X95688518Y-102101811D01*
X95605309Y-102124476D01*
X95530743Y-102126344D01*
X95488004Y-102115974D01*
X95435035Y-102091172D01*
X95401128Y-102061739D01*
X95388954Y-102043106D01*
X95384795Y-102017388D01*
X95386872Y-101969158D01*
X95389199Y-101949192D01*
X95571347Y-101949192D01*
X95573366Y-101966152D01*
X95579161Y-101974387D01*
X95588417Y-101975882D01*
X95600822Y-101972625D01*
X95601944Y-101972217D01*
X95623571Y-101961787D01*
X95659468Y-101942061D01*
X95702293Y-101917088D01*
X95707122Y-101914188D01*
X95848475Y-101814903D01*
X95976353Y-101696537D01*
X96087464Y-101562713D01*
X96178519Y-101417053D01*
X96202873Y-101368554D01*
X96232119Y-101287136D01*
X96239408Y-101214404D01*
X96225050Y-101151903D01*
X96189353Y-101101177D01*
X96142673Y-101068577D01*
X96095506Y-101047826D01*
X96037751Y-101027283D01*
X95973818Y-101007937D01*
X95908116Y-100990778D01*
X95845055Y-100976796D01*
X95789044Y-100966980D01*
X95744493Y-100962320D01*
X95715812Y-100963805D01*
X95707200Y-100970849D01*
X95714678Y-100985866D01*
X95733221Y-101011151D01*
X95738950Y-101018116D01*
X95759619Y-101047150D01*
X95770298Y-101070886D01*
X95770700Y-101074286D01*
X95767727Y-101091141D01*
X95759352Y-101129178D01*
X95746388Y-101184951D01*
X95729647Y-101255013D01*
X95709942Y-101335918D01*
X95689291Y-101419387D01*
X95656095Y-101553018D01*
X95628871Y-101664025D01*
X95607304Y-101754393D01*
X95591083Y-101826108D01*
X95579892Y-101881156D01*
X95573418Y-101921522D01*
X95571347Y-101949192D01*
X95389199Y-101949192D01*
X95394883Y-101900447D01*
X95408524Y-101813289D01*
X95427493Y-101709715D01*
X95451487Y-101591757D01*
X95466500Y-101522466D01*
X95484868Y-101435881D01*
X95503045Y-101344053D01*
X95519443Y-101255433D01*
X95532472Y-101178469D01*
X95537596Y-101144382D01*
X95559280Y-100989882D01*
X95517750Y-100947033D01*
X95488723Y-100909663D01*
X95483239Y-100879097D01*
X95501663Y-100851752D01*
X95529441Y-100832337D01*
X95582318Y-100813535D01*
X95654968Y-100806524D01*
X95744720Y-100811202D01*
G36*
X100845005Y-100877238D02*
G01*
X100887461Y-100881848D01*
X100922922Y-100891720D01*
X100960565Y-100908647D01*
X100965249Y-100911025D01*
X101024789Y-100948171D01*
X101062889Y-100989915D01*
X101083499Y-101041511D01*
X101088742Y-101075270D01*
X101090161Y-101107029D01*
X101086264Y-101136228D01*
X101075005Y-101169741D01*
X101054337Y-101214438D01*
X101037281Y-101248102D01*
X100979923Y-101359571D01*
X101007386Y-101376863D01*
X101040605Y-101394078D01*
X101062253Y-101402311D01*
X101085721Y-101415901D01*
X101117297Y-101442322D01*
X101140177Y-101465276D01*
X101186130Y-101532263D01*
X101208655Y-101606776D01*
X101207967Y-101687057D01*
X101184281Y-101771349D01*
X101137812Y-101857893D01*
X101083530Y-101928540D01*
X101031471Y-101980178D01*
X100969016Y-102029939D01*
X100901601Y-102074589D01*
X100834664Y-102110891D01*
X100773641Y-102135608D01*
X100723970Y-102145506D01*
X100718928Y-102145542D01*
X100688915Y-102140917D01*
X100651106Y-102130339D01*
X100646354Y-102128686D01*
X100606487Y-102110055D01*
X100563956Y-102083961D01*
X100553933Y-102076673D01*
X100525834Y-102056610D01*
X100507620Y-102046193D01*
X100504279Y-102045903D01*
X100496577Y-102059670D01*
X100487365Y-102076250D01*
X100463846Y-102096602D01*
X100430721Y-102101650D01*
X100397180Y-102096358D01*
X100371996Y-102076189D01*
X100360405Y-102060462D01*
X100349186Y-102040973D01*
X100340873Y-102017726D01*
X100334699Y-101985994D01*
X100329894Y-101941050D01*
X100325690Y-101878168D01*
X100323237Y-101831862D01*
X100318527Y-101678956D01*
X100320089Y-101537586D01*
X100322674Y-101494872D01*
X100475754Y-101494872D01*
X100479206Y-101574604D01*
X100483406Y-101630936D01*
X100491012Y-101723079D01*
X100497345Y-101793185D01*
X100503258Y-101844528D01*
X100509603Y-101880382D01*
X100517232Y-101904021D01*
X100526998Y-101918719D01*
X100539753Y-101927750D01*
X100556349Y-101934388D01*
X100563001Y-101936675D01*
X100598970Y-101953581D01*
X100625803Y-101974053D01*
X100629223Y-101978250D01*
X100649800Y-101994917D01*
X100679663Y-101996031D01*
X100721969Y-101981008D01*
X100777022Y-101950982D01*
X100837482Y-101905840D01*
X100895974Y-101846325D01*
X100948622Y-101778091D01*
X100991548Y-101706789D01*
X101020876Y-101638072D01*
X101032707Y-101578216D01*
X101031121Y-101538116D01*
X101020152Y-101512384D01*
X101004868Y-101497281D01*
X100962998Y-101477184D01*
X100912451Y-101478475D01*
X100852104Y-101501431D01*
X100780833Y-101546330D01*
X100768399Y-101555524D01*
X100727162Y-101583591D01*
X100689656Y-101603987D01*
X100663469Y-101612636D01*
X100661948Y-101612700D01*
X100625421Y-101605218D01*
X100587883Y-101585974D01*
X100554895Y-101559771D01*
X100532020Y-101531413D01*
X100524820Y-101505702D01*
X100527802Y-101496858D01*
X100541605Y-101484414D01*
X100571786Y-101462164D01*
X100613206Y-101433800D01*
X100640622Y-101415829D01*
X100731895Y-101347988D01*
X100806044Y-101274235D01*
X100860948Y-101197379D01*
X100894487Y-101120229D01*
X100904178Y-101066660D01*
X100905330Y-101031987D01*
X100898886Y-101014316D01*
X100879113Y-101005320D01*
X100858782Y-101000689D01*
X100788361Y-100998037D01*
X100718897Y-101018538D01*
X100653297Y-101060024D01*
X100594469Y-101120323D01*
X100545319Y-101197266D01*
X100520716Y-101253087D01*
X100499337Y-101315362D01*
X100485158Y-101371951D01*
X100477518Y-101429555D01*
X100475754Y-101494872D01*
X100322674Y-101494872D01*
X100327734Y-101411294D01*
X100341273Y-101303622D01*
X100354965Y-101238050D01*
X100389874Y-101126811D01*
X100432437Y-101038538D01*
X100484849Y-100971389D01*
X100549305Y-100923523D01*
X100627997Y-100893098D01*
X100723122Y-100878274D01*
X100786381Y-100876100D01*
X100845005Y-100877238D01*
G37*
X100845005Y-100877238D02*
X100887461Y-100881848D01*
X100922922Y-100891720D01*
X100960565Y-100908647D01*
X100965249Y-100911025D01*
X101024789Y-100948171D01*
X101062889Y-100989915D01*
X101083499Y-101041511D01*
X101088742Y-101075270D01*
X101090161Y-101107029D01*
X101086264Y-101136228D01*
X101075005Y-101169741D01*
X101054337Y-101214438D01*
X101037281Y-101248102D01*
X100979923Y-101359571D01*
X101007386Y-101376863D01*
X101040605Y-101394078D01*
X101062253Y-101402311D01*
X101085721Y-101415901D01*
X101117297Y-101442322D01*
X101140177Y-101465276D01*
X101186130Y-101532263D01*
X101208655Y-101606776D01*
X101207967Y-101687057D01*
X101184281Y-101771349D01*
X101137812Y-101857893D01*
X101083530Y-101928540D01*
X101031471Y-101980178D01*
X100969016Y-102029939D01*
X100901601Y-102074589D01*
X100834664Y-102110891D01*
X100773641Y-102135608D01*
X100723970Y-102145506D01*
X100718928Y-102145542D01*
X100688915Y-102140917D01*
X100651106Y-102130339D01*
X100646354Y-102128686D01*
X100606487Y-102110055D01*
X100563956Y-102083961D01*
X100553933Y-102076673D01*
X100525834Y-102056610D01*
X100507620Y-102046193D01*
X100504279Y-102045903D01*
X100496577Y-102059670D01*
X100487365Y-102076250D01*
X100463846Y-102096602D01*
X100430721Y-102101650D01*
X100397180Y-102096358D01*
X100371996Y-102076189D01*
X100360405Y-102060462D01*
X100349186Y-102040973D01*
X100340873Y-102017726D01*
X100334699Y-101985994D01*
X100329894Y-101941050D01*
X100325690Y-101878168D01*
X100323237Y-101831862D01*
X100318527Y-101678956D01*
X100320089Y-101537586D01*
X100322674Y-101494872D01*
X100475754Y-101494872D01*
X100479206Y-101574604D01*
X100483406Y-101630936D01*
X100491012Y-101723079D01*
X100497345Y-101793185D01*
X100503258Y-101844528D01*
X100509603Y-101880382D01*
X100517232Y-101904021D01*
X100526998Y-101918719D01*
X100539753Y-101927750D01*
X100556349Y-101934388D01*
X100563001Y-101936675D01*
X100598970Y-101953581D01*
X100625803Y-101974053D01*
X100629223Y-101978250D01*
X100649800Y-101994917D01*
X100679663Y-101996031D01*
X100721969Y-101981008D01*
X100777022Y-101950982D01*
X100837482Y-101905840D01*
X100895974Y-101846325D01*
X100948622Y-101778091D01*
X100991548Y-101706789D01*
X101020876Y-101638072D01*
X101032707Y-101578216D01*
X101031121Y-101538116D01*
X101020152Y-101512384D01*
X101004868Y-101497281D01*
X100962998Y-101477184D01*
X100912451Y-101478475D01*
X100852104Y-101501431D01*
X100780833Y-101546330D01*
X100768399Y-101555524D01*
X100727162Y-101583591D01*
X100689656Y-101603987D01*
X100663469Y-101612636D01*
X100661948Y-101612700D01*
X100625421Y-101605218D01*
X100587883Y-101585974D01*
X100554895Y-101559771D01*
X100532020Y-101531413D01*
X100524820Y-101505702D01*
X100527802Y-101496858D01*
X100541605Y-101484414D01*
X100571786Y-101462164D01*
X100613206Y-101433800D01*
X100640622Y-101415829D01*
X100731895Y-101347988D01*
X100806044Y-101274235D01*
X100860948Y-101197379D01*
X100894487Y-101120229D01*
X100904178Y-101066660D01*
X100905330Y-101031987D01*
X100898886Y-101014316D01*
X100879113Y-101005320D01*
X100858782Y-101000689D01*
X100788361Y-100998037D01*
X100718897Y-101018538D01*
X100653297Y-101060024D01*
X100594469Y-101120323D01*
X100545319Y-101197266D01*
X100520716Y-101253087D01*
X100499337Y-101315362D01*
X100485158Y-101371951D01*
X100477518Y-101429555D01*
X100475754Y-101494872D01*
X100322674Y-101494872D01*
X100327734Y-101411294D01*
X100341273Y-101303622D01*
X100354965Y-101238050D01*
X100389874Y-101126811D01*
X100432437Y-101038538D01*
X100484849Y-100971389D01*
X100549305Y-100923523D01*
X100627997Y-100893098D01*
X100723122Y-100878274D01*
X100786381Y-100876100D01*
X100845005Y-100877238D01*
D12*
X109220000Y-91325700D03*
D13*
X109220000Y-96405700D03*
X109220000Y-101485700D03*
X114300000Y-91325700D03*
X114300000Y-96405700D03*
X114300000Y-101485700D03*
X119380000Y-91325700D03*
X119380000Y-96405700D03*
X119380000Y-101485700D03*
D14*
X129540000Y-96393000D03*
X127000000Y-93853000D03*
X124460000Y-96393000D03*
D15*
X131953000Y-89789000D03*
X124333000Y-89789000D03*
D16*
X120523000Y-85471000D03*
X117983000Y-85471000D03*
X112903000Y-85471000D03*
X115443000Y-85471000D03*
X107823000Y-85471000D03*
X110363000Y-85471000D03*
D15*
X95504000Y-96405700D03*
D17*
X92964000Y-96405700D03*
D15*
X135636000Y-96405700D03*
D17*
X133096000Y-96405700D03*
M02*
